HIERARCHY
ROOT SpineBase
{
  OFFSET 0.000000 0.000000 0.000000
  CHANNELS 6 Xposition Yposition Zposition Zrotation Xrotation Yrotation
  JOINT SpineMid
  {
    OFFSET 0.000000 28.835990 0.000000
    CHANNELS 3 Zrotation Xrotation Yrotation
    JOINT SpineShoulder
    {
      OFFSET -0.325681 21.883949 -0.508449
      CHANNELS 3 Zrotation Xrotation Yrotation
      JOINT Neck
      {
        OFFSET -0.251508 7.428589 -0.392546
        CHANNELS 3 Zrotation Xrotation Yrotation
        JOINT Head
        {
          OFFSET 4.151532 11.128624 1.578801
          CHANNELS 3 Zrotation Xrotation Yrotation
          End Site
          {
            OFFSET 0 0 0
          }
        }
      }
      JOINT ShoulderLeft
      {
        OFFSET -9.392432 11.898264 -1.978873
        CHANNELS 3 Zrotation Xrotation Yrotation
        JOINT ElbowLeft
        {
          OFFSET -28.402775 -10.032420 8.427884
          CHANNELS 3 Zrotation Xrotation Yrotation
          JOINT WristLeft
          {
            OFFSET 17.177739 7.078637 -15.239333
            CHANNELS 3 Zrotation Xrotation Yrotation
            JOINT HandLeft
            {
              OFFSET 4.732288 2.533740 -6.530098
              CHANNELS 3 Zrotation Xrotation Yrotation
              JOINT HandTipLeft
              {
                OFFSET 3.070904 2.116463 -6.531642
                CHANNELS 3 Zrotation Xrotation Yrotation
                End Site
                {
                  OFFSET 0 0 0
                }
              }
              JOINT ThumbLeft
              {
                OFFSET 2.151312 0.982084 2.905971
                CHANNELS 3 Zrotation Xrotation Yrotation
                End Site
                {
                  OFFSET 0 0 0
                }
              }
            }
          }
        }
      }
      JOINT ShoulderRight
      {
        OFFSET 11.873385 0.581102 -2.711903
        CHANNELS 3 Zrotation Xrotation Yrotation
        JOINT ElbowRight
        {
          OFFSET 15.916659 -20.965079 13.261722
          CHANNELS 3 Zrotation Xrotation Yrotation
          JOINT WristRight
          {
            OFFSET 18.343742 -17.676675 15.778164
            CHANNELS 3 Zrotation Xrotation Yrotation
            JOINT HandRight
            {
              OFFSET 6.069293 -2.160190 -0.748308
              CHANNELS 3 Zrotation Xrotation Yrotation
              JOINT HandTipRight
              {
                OFFSET 0.384652 0.030820 -0.160213
                CHANNELS 3 Zrotation Xrotation Yrotation
                End Site
                {
                  OFFSET 0 0 0
                }
              }
              JOINT ThumbRight
              {
                OFFSET -1.450814 2.264396 -2.001785
                CHANNELS 3 Zrotation Xrotation Yrotation
                End Site
                {
                  OFFSET 0 0 0
                }
              }
            }
          }
        }
      }
    }
  }
  JOINT HipLeft
  {
    OFFSET -7.816298 4.008763 1.081701
    CHANNELS 3 Zrotation Xrotation Yrotation
    JOINT KneeLeft
    {
      OFFSET 21.274991 0.105784 -12.693166
      CHANNELS 3 Zrotation Xrotation Yrotation
      JOINT AnkleLeft
      {
        OFFSET -4.183260 -44.677245 2.273148
        CHANNELS 3 Zrotation Xrotation Yrotation
        JOINT FootLeft
        {
          OFFSET -1.004299 -1.469430 -12.499486
          CHANNELS 3 Zrotation Xrotation Yrotation
          End Site
          {
            OFFSET 0 0 0
          }
        }
      }
    }
  }
  JOINT HipRight
  {
    OFFSET 4.953298 0.307460 -5.550145
    CHANNELS 3 Zrotation Xrotation Yrotation
    JOINT KneeRight
    {
      OFFSET 10.422813 -24.389848 23.341163
      CHANNELS 3 Zrotation Xrotation Yrotation
      JOINT AnkleRight
      {
        OFFSET -3.136945 -33.179176 -0.991284
        CHANNELS 3 Zrotation Xrotation Yrotation
        JOINT FootRight
        {
          OFFSET -3.483541 12.663854 -9.249618
          CHANNELS 3 Zrotation Xrotation Yrotation
          End Site
          {
            OFFSET 0 0 0
          }
        }
      }
    }
  }
}
MOTION
Frames: 9
Frame Time: 0.033333
220.023525 59.625438 342.783376 -0.000000 0.000000 27.444953 -0.000000 0.000000 -27.444953 -0.000000 0.000000 0.000000 -0.000000 0.000000 0.000000 0.000000 0.000000 0.000000 -0.000000 0.000000 0.000000 -0.000000 0.000000 0.000000 -0.000000 0.000000 0.000000 -0.000000 0.000000 0.000000 0.000000 0.000000 0.000000 0.000000 0.000000 0.000000 -0.000000 0.000000 0.000000 -0.000000 0.000000 0.000000 -0.000000 0.000000 0.000000 -0.000000 0.000000 0.000000 0.000000 0.000000 0.000000 0.000000 0.000000 0.000000 -0.000000 0.000000 -27.444953 -0.000000 0.000000 0.000000 -0.000000 0.000000 0.000000 0.000000 0.000000 0.000000 -0.000000 0.000000 -27.444953 -0.000000 0.000000 0.000000 -0.000000 0.000000 0.000000 0.000000 0.000000 0.000000
224.900257 61.876395 337.784326 0.366671 0.493834 40.010070 -0.598342 -0.142492 -40.012394 -0.000000 0.000000 0.000000 -0.000000 0.000000 0.000000 0.000000 0.000000 0.000000 -0.000000 0.000000 0.000000 1.382329 0.201959 2.568087 -3.802523 -0.938881 -6.771328 3.872277 -0.237452 10.616417 0.000000 0.000000 0.000000 0.000000 0.000000 0.000000 -0.000000 0.000000 0.000000 -0.000000 0.000000 0.000000 -0.000000 0.000000 0.000000 -0.000000 0.000000 0.000000 0.000000 0.000000 0.000000 0.000000 0.000000 0.000000 -1.477339 -0.041252 -36.637345 0.765766 0.443280 -3.379422 -0.000000 0.000000 0.000000 0.000000 0.000000 0.000000 -1.731106 -0.137276 -41.154984 0.856390 0.741493 1.134282 1.617817 -2.074936 0.629416 0.000000 0.000000 0.000000
228.801352 63.712803 333.535539 0.701511 0.903276 48.787248 0.010495 -0.057231 -48.761735 0.061852 -0.039847 0.041508 -0.814396 -0.832631 -0.077133 0.000000 0.000000 0.000000 -0.814396 -0.832631 -0.077133 2.663999 0.428561 5.006094 -7.476452 -1.526159 -12.901895 7.517867 0.278527 19.604683 0.000000 0.000000 0.000000 0.000000 0.000000 0.000000 -0.814396 -0.832631 -0.077133 -0.000000 0.000000 0.000000 -0.000000 0.000000 0.000000 -0.000000 0.000000 0.000000 0.000000 0.000000 0.000000 0.000000 0.000000 0.000000 -2.697721 0.315946 -42.456498 1.406807 0.767560 -6.342999 -0.000000 0.000000 0.000000 0.000000 0.000000 0.000000 -3.142007 0.173821 -50.790263 1.451638 1.397354 1.980969 3.019369 -3.836952 1.212644 0.000000 0.000000 0.000000
231.726811 65.134664 330.037013 0.999367 1.219949 54.829479 0.005949 -0.077575 -54.796716 0.082443 -0.053212 0.057918 -1.150652 -1.124975 -0.110172 0.000000 0.000000 0.000000 -1.150652 -1.124975 -0.110172 3.811288 0.660249 7.250563 -10.868867 -1.851916 -18.154171 10.595197 1.351766 26.427983 0.000000 0.000000 0.000000 0.000000 0.000000 0.000000 -1.150652 -1.124975 -0.110172 -0.000000 0.000000 0.000000 -0.000000 0.000000 0.000000 0.081160 0.112390 -0.994705 0.000000 0.000000 0.000000 0.000000 0.000000 0.000000 -3.617502 0.801048 -45.943083 1.915275 0.991984 -8.895714 -0.000000 0.000000 0.000000 0.000000 0.000000 0.000000 -4.249954 0.601152 -57.470653 1.850374 1.995285 2.616597 4.191314 -5.285212 1.725662 0.000000 0.000000 0.000000
233.676634 66.141977 327.288749 1.255641 1.437149 59.004930 0.000479 -0.090564 -58.967505 0.095672 -0.061719 0.070798 -2.155581 -1.842729 0.138139 0.000000 0.000000 0.000000 -1.432073 -1.326250 -0.137133 4.798657 0.876061 9.249134 -13.867386 -2.040215 -22.361281 12.900600 2.727973 30.797335 0.000000 0.000000 0.000000 0.000000 0.000000 0.000000 -1.432073 -1.326250 -0.137133 -0.000000 0.000000 0.000000 -0.000000 0.000000 0.000000 0.146160 0.157821 -1.238640 0.000000 0.000000 0.000000 0.000000 0.000000 0.000000 -4.252749 1.276930 -47.953224 2.288294 1.133576 -11.051146 -0.004544 0.739930 -0.442711 0.000000 0.000000 0.000000 -5.116975 0.989443 -62.114203 2.092178 2.557083 3.089821 5.123814 -6.423657 2.148973 0.000000 0.000000 0.000000
234.650820 66.734742 325.290746 1.466491 1.550150 61.888524 -0.004031 -0.096143 -61.848272 0.101342 -0.065133 0.079806 -2.446511 -2.003754 0.145232 0.000000 0.000000 0.000000 -1.654239 -1.432305 -0.156568 5.609970 1.056502 10.963766 -16.400831 -2.221444 -25.427661 14.349366 4.196819 32.607126 0.000000 0.000000 0.000000 0.000000 0.000000 0.000000 -1.654239 -1.432305 -0.156568 -0.000000 0.000000 0.000000 -0.000000 0.000000 0.000000 0.230084 0.206327 -1.428529 0.000000 0.000000 0.000000 0.000000 0.000000 0.000000 -4.624891 1.681206 -49.047548 2.526068 1.206328 -12.827014 -0.006215 0.796919 -0.464277 0.000000 0.000000 0.000000 -5.794478 1.268883 -65.330136 2.200833 3.100889 3.432071 5.809995 -7.258332 2.467610 0.000000 0.000000 0.000000
231.766436 66.779288 319.795576 1.705793 1.376056 64.340141 0.003442 -0.077331 -64.297999 0.084711 -0.039478 0.082939 -2.693498 -1.939526 0.168219 0.000000 0.000000 0.000000 -1.865013 -1.301614 -0.163810 5.267117 2.047852 7.382518 -21.225394 -4.274988 -29.955920 15.141502 7.954922 29.466309 0.000000 0.000000 0.000000 0.000000 0.000000 0.000000 -1.865013 -1.301614 -0.163810 -0.000000 0.000000 0.000000 -0.000000 0.000000 0.000000 0.846496 0.492361 -1.974091 0.000000 0.000000 0.000000 0.000000 0.000000 0.000000 -3.510929 1.613488 -49.091793 1.510454 0.718135 -15.227871 -0.014623 0.760521 -0.374153 0.000000 0.000000 0.000000 -6.889973 1.343567 -68.340368 2.185977 4.416040 4.009713 6.298057 -7.844628 2.699157 0.000000 0.000000 0.000000
232.465708 65.920851 318.648477 1.167057 0.278580 52.108604 0.062225 -0.040468 -52.078245 0.084057 0.032730 0.047760 -2.233533 -1.036978 0.295337 0.000000 0.000000 0.000000 -1.321726 -0.333735 -0.085015 6.641308 1.562679 12.519595 -21.822010 -3.014877 -30.872155 15.191389 8.138850 28.867872 0.000000 0.000000 0.000000 0.000000 0.000000 0.000000 -1.321726 -0.333735 -0.085015 -0.000000 0.000000 0.000000 -0.000000 0.000000 0.000000 0.918504 0.535475 -2.183863 0.000000 0.000000 0.000000 0.000000 0.000000 0.000000 -1.240478 0.797816 -42.600128 0.256050 0.170388 -9.501461 -0.000000 0.000000 0.000000 0.000000 0.000000 0.000000 -3.638200 0.757734 -54.544347 1.573423 2.196079 2.444425 6.431540 -7.950624 2.775050 0.000000 0.000000 0.000000
233.766857 66.448486 321.202173 1.434441 1.597493 57.498173 0.018251 -0.079953 -57.458243 0.093716 -0.037551 0.080071 -2.470125 -2.176472 0.177684 0.000000 0.000000 0.000000 -1.609133 -1.528595 -0.158224 9.790177 1.528165 22.357408 -22.668324 -2.635324 -28.507328 13.308532 9.619325 18.739291 0.000000 0.000000 0.000000 0.000000 0.000000 0.000000 -1.609133 -1.528595 -0.158224 -0.000000 0.000000 0.000000 -0.000000 0.000000 0.000000 0.607737 0.389935 -1.865787 0.000000 0.000000 0.000000 0.000000 0.000000 0.000000 -5.071734 1.477490 -47.409137 2.827472 1.413228 -10.090254 -0.013037 0.785213 -0.402210 0.000000 0.000000 0.000000 -5.802530 0.286673 -60.616853 1.752521 3.242268 3.076110 6.938324 -7.466838 3.259697 0.000000 0.000000 0.000000
